<?xml version="1.0" encoding="utf-8"?><svg xmlns="http://www.w3.org/2000/svg" xmlns:xlink="http://www.w3.org/1999/xlink"><symbol viewBox="0 0 64 64" id="icons--culture" xmlns="http://www.w3.org/2000/svg"><path d="M0 0h64v64H0z"/><path d="M40.17 23.09l-.1-.1c-.1 0-4.4-2.7-12.2-2.7a40.29 40.29 0 0 0-6.6.6c-12 2.1-16.8 8.3-16.9 8.4v.2c0 .1 1.3 6.4 3 12.7A23.26 23.26 0 0 0 28 59.89h.3c1.2-.2 14.8-7 13.6-23.8-.63-6.5-1.73-12.9-1.73-13zm-12.5 33.8a20.3 20.3 0 0 1-17.4-15.5c-1.2-4.5-2.2-9-2.7-11.1 1.7-1.6 6.1-5 14.2-6.4a32.32 32.32 0 0 1 6.1-.6 26.83 26.83 0 0 1 9.6 1.7c.3 2.2 1 6.7 1.3 11.3a20.77 20.77 0 0 1-11.1 20.6zm4.5-38.3a23.25 23.25 0 0 1 2.8.5.75.75 0 0 0 .4-.1 3.36 3.36 0 0 0 2-4.4c-.7-1.8-7.1.6-6.5 2.4a4 4 0 0 0 1.3 1.6zm18.6 1.9c1.2-1.5-4.1-5.9-5.3-4.4a3.58 3.58 0 0 0 .4 4.9 3.49 3.49 0 0 0 4.9-.5zm-7.7 8.7c.2 1.6.4 3.3.5 5l2.9.5c.4-2-1-4.2-3.4-5.5zm17.3-16.1c0-.1-4.9-6.3-16.9-8.6a46.15 46.15 0 0 0-7-.6c-7.6 0-11.8 2.6-11.8 2.6l-.1.1c0 .1-.9 5.9-1.6 12l3-.3c.4-3.9 1-7.8 1.3-9.8a25.63 25.63 0 0 1 9.2-1.6 34.43 34.43 0 0 1 6.3.6 29.14 29.14 0 0 1 14.3 6.6c-.5 2.2-1.4 6.6-2.7 11a20.49 20.49 0 0 1-10.6 13.2c0 1.2-.1 2.4-.2 3.5A23.87 23.87 0 0 0 57.27 26c1.8-6.2 3.1-12.6 3.1-12.7v-.2zM20 34a3.45 3.45 0 1 0-2.8 4 3.54 3.54 0 0 0 2.8-4zm9.9-5.3a3.45 3.45 0 1 0 4 2.8 3.43 3.43 0 0 0-4.03-2.81zM18 47c.5 2.9 4.4 4.7 8.6 4s7.3-3.7 6.8-6.7z"/></symbol><symbol viewBox="0 0 64 64" id="icons--handshake" xmlns="http://www.w3.org/2000/svg"><path d="M0 0h64v64H0z"/><path d="M56.12 33.1l6.4-3.6-9.7-17.5-6.1 3.4h-7.9l-5.9-3.3-15.7 2.9L12 12 2.32 29.5l7.6 4.3a4.6 4.6 0 0 0-.6 6.1 4.15 4.15 0 0 0 2.6 1.7 6.31 6.31 0 0 0 .8 2.3 4.16 4.16 0 0 0 3 1.8h.9a3.1 3.1 0 0 0 .6 1.3 4.69 4.69 0 0 0 3.7 1.9 5 5 0 0 0 1.2-.2c.1.2.3.5.4.7a4.41 4.41 0 0 0 3.6 1.8 4.32 4.32 0 0 0 2.6-.9l.4-.3 5.8 3.2a4.65 4.65 0 0 0 2.3.6 5.9 5.9 0 0 0 1.4-.2 5.13 5.13 0 0 0 2.9-2.3 4.42 4.42 0 0 0 .5-1.5h.3a5.9 5.9 0 0 0 1.4-.2 5.13 5.13 0 0 0 2.9-2.3 5 5 0 0 0 .5-1.3c.3 0 .5.1.8.1a5.9 5.9 0 0 0 1.4-.2 5.13 5.13 0 0 0 2.9-2.3 4.42 4.42 0 0 0 .5-1.5h.2a5.11 5.11 0 0 0 4.4-2.5 4.73 4.73 0 0 0-1.2-6.5zm-8.6-14.6l4.2-2.3 6.8 12.2-5.4 3-12.3-6.8-.7.4-7 3.7a7.4 7.4 0 0 1-3.6.9c-2.4 0-4.4-1-5.1-2l-.1-.1a13.49 13.49 0 0 0 4.2-1.5c2.2-1.2 7.5-5.9 9.1-7.4zm-34.4 20.4a1.91 1.91 0 0 1-1.4-.7 1.75 1.75 0 0 1 .4-2.4l3.3-2.4a1.69 1.69 0 0 1 1-.3 1.91 1.91 0 0 1 1.4.7 1.75 1.75 0 0 1-.4 2.4l-3.3 2.4a1.93 1.93 0 0 1-1 .3zm4.4 3.7a1.69 1.69 0 0 1-1 .3 1.91 1.91 0 0 1-1.4-.7 1.52 1.52 0 0 1-.3-1.3 1.9 1.9 0 0 1 .7-1.1l4.3-3.1a1.69 1.69 0 0 1 1-.3 1.91 1.91 0 0 1 1.4.7 1.75 1.75 0 0 1-.4 2.4zM22 45.8a1.69 1.69 0 0 1-1 .3 1.91 1.91 0 0 1-1.4-.7A1.75 1.75 0 0 1 20 43l3.3-2.4a1.69 1.69 0 0 1 1-.3 1.91 1.91 0 0 1 1.4.7 1.75 1.75 0 0 1-.4 2.4zm5.1 2.4a1.61 1.61 0 0 1-.9.3 1.31 1.31 0 0 1-1.2-.6 1.55 1.55 0 0 1 .3-2.1l2.1-1.5a1.61 1.61 0 0 1 .9-.3 1.31 1.31 0 0 1 1.2.6 1.55 1.55 0 0 1-.3 2.1zm27.8-10a1.91 1.91 0 0 1-2.3.9l-2.4-1.4-8.9-4.9-1 1.8 8.9 4.9a2.16 2.16 0 0 1 .7 2.7 1.86 1.86 0 0 1-1.2.9 2.2 2.2 0 0 1-1.4-.1l-3.5-1.9-5.4-3-1 1.8 6.2 3.5a1.71 1.71 0 0 1 .8 1.2 1.94 1.94 0 0 1-.2 1.5 1.86 1.86 0 0 1-1.2.9 2.44 2.44 0 0 1-1.2 0l-3.3-2-3.1-1.7-1 1.8 4 2.2a2.16 2.16 0 0 1 .7 2.7 1.86 1.86 0 0 1-1.2.9 1.69 1.69 0 0 1-1.4-.1l-4.7-2.6a4.49 4.49 0 0 0 .1-5.4A4.29 4.29 0 0 0 29 41h-.3a3.81 3.81 0 0 0-.8-1.7 4.43 4.43 0 0 0-2.6-1.7 6.31 6.31 0 0 0-.8-2.3 4.6 4.6 0 0 0-3.8-1.9A3.69 3.69 0 0 0 20 32a4.53 4.53 0 0 0-6.4-1l-1 .7-6.2-3.3 6.8-12.2 3.5 2 15.6-2.8 2.6 1.5c-2.3 2.1-6.4 5.7-8 6.5a22.55 22.55 0 0 1-5.6 1.7l-.3.9a3.82 3.82 0 0 0 .8 3.5c1.5 2 4.4 3.2 7.5 3.2a11.25 11.25 0 0 0 5.1-1.2c2.5-1.3 5.1-2.7 6.3-3.3L53.12 35l1.2.7c.8.2 1.1 1.6.6 2.5z"/></symbol><symbol viewBox="0 0 23 24" id="icons--in" xmlns="http://www.w3.org/2000/svg"><defs><path d="M20.125 12.185v7.69h-4.313V12.7c0-1.802-.624-3.032-2.186-3.032-1.192 0-1.9.829-2.213 1.63-.114.287-.143.686-.143 1.088v7.489H6.955s.058-12.151 0-13.41h4.315v1.9l-.029.044h.029v-.044c.573-.912 1.597-2.216 3.888-2.216 2.839 0 4.967 1.917 4.967 6.036zM2.442 0C.966 0 0 1 0 2.317c0 1.287.938 2.318 2.384 2.318h.03c1.504 0 2.44-1.031 2.44-2.318C4.825 1 3.918 0 2.442 0zM.256 19.875H4.57V6.465H.256v13.41z" id="ca"/></defs><g fill-rule="evenodd"><path d="M-19-1346h336v2771H-19z"/><path fill-rule="nonzero" d="M-19-1228h337V211H-19z"/><g transform="translate(1.797 2.25)"><mask id="cb"><use xlink:href="#ca"/></mask><use fill-rule="nonzero" xlink:href="#ca"/><g mask="url(#cb)"><path d="M-1.847-2.295h23.46v24.48h-23.46z"/></g></g></g></symbol><symbol viewBox="0 0 64 64" id="icons--internet" xmlns="http://www.w3.org/2000/svg"><path d="M0 0h64v64H0z"/><path d="M32 4a28 28 0 1 0 28 28A28 28 0 0 0 32 4zm1 53V46h10.92a35.71 35.71 0 0 1-6.84 10.48A25 25 0 0 1 33 57zm-6.08-.49A35.58 35.58 0 0 1 20.11 46H31v11a25 25 0 0 1-4.08-.52zM7 33h8.3a38 38 0 0 0 1.92 11h-7.14A24.82 24.82 0 0 1 7 33zM31 7v11H20.12A35.59 35.59 0 0 1 27 7.51 24.85 24.85 0 0 1 31 7zm6 .49A35.7 35.7 0 0 1 43.91 18H33V7a25 25 0 0 1 4 .51zM44.69 20a35.78 35.78 0 0 1 2 11H33V20zM31 20v11H17.3a36 36 0 0 1 2-11zM15.3 31H7a24.82 24.82 0 0 1 3.05-11h7.15a38 38 0 0 0-1.9 11zm2 2H31v11H19.33a36 36 0 0 1-2.03-11zM33 44V33h13.72a35.81 35.81 0 0 1-2 11zm15.72-11H57a24.82 24.82 0 0 1-3 11h-7.19a37.84 37.84 0 0 0 1.91-11zm0-2a37.8 37.8 0 0 0-1.92-11h7.13A24.83 24.83 0 0 1 57 31zm4-13h-6.65a37.51 37.51 0 0 0-5.52-9.49A25.14 25.14 0 0 1 52.7 18zM23.46 8.51A37.52 37.52 0 0 0 18 18h-6.7a25.13 25.13 0 0 1 12.16-9.49zM11.3 46h6.64a37.52 37.52 0 0 0 5.48 9.48A25.14 25.14 0 0 1 11.3 46zm29.28 9.48a37.51 37.51 0 0 0 5.5-9.48h6.62a25.14 25.14 0 0 1-12.12 9.48z"/></symbol><symbol viewBox="0 0 64 64" id="icons--search" xmlns="http://www.w3.org/2000/svg"><path d="M0 0h64v64H0z"/><path d="M37 7a20 20 0 0 1 0 40 19.46 19.46 0 0 1-11.6-3.82h-.12a18.57 18.57 0 0 1-4.54-4.47A20 20 0 0 1 37 7m0-3a23 23 0 0 0-18.7 36.4 21.81 21.81 0 0 0 5.3 5.2A22.41 22.41 0 0 0 37 50a23 23 0 0 0 0-46zM17.37 42.41L4.9 54.87A3 3 0 1 0 9 59.26l.15-.15 12.5-12.49a23.88 23.88 0 0 1-4.28-4.21z"/></symbol><symbol viewBox="0 0 23 24" id="icons--web" xmlns="http://www.w3.org/2000/svg"><g fill-rule="evenodd"><path d="M-19-1310h336v2771H-19z"/><path d="M-19-1192h337V247H-19z"/><path d="M11.884 17.077h3.726a12.948 12.948 0 0 1-1.828 3.148 7.895 7.895 0 0 1-1.898.321v-3.469zm0-4.696h4.696a13.413 13.413 0 0 1-.69 3.917h-4.006V12.38zm0-4.707h3.985c.426 1.25.668 2.568.709 3.927h-4.694V7.674zm0-4.22a7.884 7.884 0 0 1 1.863.312 12.96 12.96 0 0 1 1.837 3.13h-3.7V3.454zm6.209 3.442h-1.698a13.747 13.747 0 0 0-1.34-2.612 8.352 8.352 0 0 1 3.038 2.612zm.497.778a8.767 8.767 0 0 1 1.117 3.927h-2.382a14.235 14.235 0 0 0-.662-3.927h1.927zm.017 8.624h-1.925a14.22 14.22 0 0 0 .645-3.917h2.382a8.764 8.764 0 0 1-1.102 3.917zm-3.519 3.4a13.84 13.84 0 0 0 1.328-2.62h1.697a8.347 8.347 0 0 1-3.025 2.62zM11.137 6.897H7.434a12.96 12.96 0 0 1 1.837-3.13 7.863 7.863 0 0 1 1.866-.312v3.442zm0 4.705H6.44a13.44 13.44 0 0 1 .708-3.927h3.989v3.927zm0 4.697H7.128a13.413 13.413 0 0 1-.69-3.917h4.699v3.917zm0 4.248a7.875 7.875 0 0 1-1.901-.32 13.029 13.029 0 0 1-1.83-3.149h3.73v3.47zm-6.232-3.469h1.697c.35.918.79 1.798 1.327 2.622a8.358 8.358 0 0 1-3.024-2.622zm-.494-.78a8.764 8.764 0 0 1-1.102-3.916h2.382c.033 1.35.25 2.664.644 3.917H4.41zm.016-8.623h1.928a14.235 14.235 0 0 0-.662 3.927H3.31a8.768 8.768 0 0 1 1.117-3.927zm3.537-3.39c-.54.82-.989 1.696-1.342 2.612H4.925a8.345 8.345 0 0 1 3.039-2.612zM1.797 12c0 5.592 4.352 10.125 9.712 10.125 5.359 0 9.713-4.533 9.713-10.125S16.868 1.875 11.509 1.875C6.15 1.875 1.797 6.408 1.797 12z"/></g></symbol><symbol viewBox="0 0 23 24" id="icons--web-white" xmlns="http://www.w3.org/2000/svg"><g fill-rule="evenodd"><path d="M-19-1310h336v2771H-19z"/><path d="M-19-1192h337V247H-19z"/><path d="M11.884 17.077h3.726a12.948 12.948 0 0 1-1.828 3.148 7.895 7.895 0 0 1-1.898.321v-3.469zm0-4.696h4.696a13.413 13.413 0 0 1-.69 3.917h-4.006V12.38zm0-4.707h3.985c.426 1.25.668 2.568.709 3.927h-4.694V7.674zm0-4.22a7.884 7.884 0 0 1 1.863.312 12.96 12.96 0 0 1 1.837 3.13h-3.7V3.454zm6.209 3.442h-1.698a13.747 13.747 0 0 0-1.34-2.612 8.352 8.352 0 0 1 3.038 2.612zm.497.778a8.767 8.767 0 0 1 1.117 3.927h-2.382a14.235 14.235 0 0 0-.662-3.927h1.927zm.017 8.624h-1.925a14.22 14.22 0 0 0 .645-3.917h2.382a8.764 8.764 0 0 1-1.102 3.917zm-3.519 3.4a13.84 13.84 0 0 0 1.328-2.62h1.697a8.347 8.347 0 0 1-3.025 2.62zM11.137 6.897H7.434a12.96 12.96 0 0 1 1.837-3.13 7.863 7.863 0 0 1 1.866-.312v3.442zm0 4.705H6.44a13.44 13.44 0 0 1 .708-3.927h3.989v3.927zm0 4.697H7.128a13.413 13.413 0 0 1-.69-3.917h4.699v3.917zm0 4.248a7.875 7.875 0 0 1-1.901-.32 13.029 13.029 0 0 1-1.83-3.149h3.73v3.47zm-6.232-3.469h1.697c.35.918.79 1.798 1.327 2.622a8.358 8.358 0 0 1-3.024-2.622zm-.494-.78a8.764 8.764 0 0 1-1.102-3.916h2.382c.033 1.35.25 2.664.644 3.917H4.41zm.016-8.623h1.928a14.235 14.235 0 0 0-.662 3.927H3.31a8.768 8.768 0 0 1 1.117-3.927zm3.537-3.39c-.54.82-.989 1.696-1.342 2.612H4.925a8.345 8.345 0 0 1 3.039-2.612zM1.797 12c0 5.592 4.352 10.125 9.712 10.125 5.359 0 9.713-4.533 9.713-10.125S16.868 1.875 11.509 1.875C6.15 1.875 1.797 6.408 1.797 12z"/></g></symbol></svg>